<svg data-v-423bf9ae="" xmlns="http://www.w3.org/2000/svg" viewBox="0 0 372 90" class="iconLeft"><!----><!----><!----><g data-v-423bf9ae="" id="d7d63799-2803-4703-bc73-afa45c1f1d25" fill="white" transform="matrix(5.7526364568010235,0,0,5.7526364568010235,84.21372772398496,11.145735325679823)"><path d="M6.40 3.02L6.40 3.02L2.37 3.02L2.37 4.70L5.33 4.70L5.33 7.06L2.37 7.06L2.37 11.09L0.01 11.09L0.01 0.67L6.40 0.67L6.40 3.02ZM9.66 0.67L9.66 0.67L9.66 11.09L7.31 11.09L7.31 0.67L9.66 0.67ZM17.61 0.67L17.61 0.67L17.61 3.02L15.25 3.02L15.25 11.09L12.89 11.09L12.89 3.02L10.53 3.02L10.53 0.67L17.61 0.67ZM25.16 0.67L25.16 0.67L25.16 3.02L21.10 8.74L25.16 8.74L25.16 11.09L18.37 11.09L18.37 8.74L22.41 3.02L18.37 3.02L18.37 0.67L25.16 0.67ZM34.20 6.94L34.20 6.94L34.20 6.94Q34.19 7.77 33.89 8.51L33.89 8.51L33.89 8.51Q33.60 9.25 33.04 9.84L33.04 9.84L33.04 9.84Q32.47 10.46 31.73 10.78L31.73 10.78L31.73 10.78Q31.00 11.10 30.17 11.10L30.17 11.10L30.16 11.10L30.16 11.10Q29.34 11.10 28.61 10.78L28.61 10.78L28.61 10.78Q27.87 10.46 27.29 9.86L27.29 9.86L27.29 9.86Q26.74 9.27 26.44 8.53L26.44 8.53L26.44 8.53Q26.14 7.78 26.12 6.94L26.12 6.94L26.12 4.51L26.12 4.51Q26.19 3.77 26.50 3.11L26.50 3.11L26.50 3.11Q26.80 2.45 27.29 1.92L27.29 1.92L27.29 1.92Q27.87 1.32 28.60 0.99L28.60 0.99L28.60 0.99Q29.33 0.67 30.16 0.67L30.16 0.67L30.17 0.67L30.17 0.67Q31.00 0.67 31.73 0.99L31.73 0.99L31.73 0.99Q32.47 1.32 33.04 1.92L33.04 1.92L33.04 1.92Q33.54 2.45 33.84 3.11L33.84 3.11L33.84 3.11Q34.13 3.77 34.20 4.51L34.20 4.51L34.20 4.82L34.20 6.10L34.20 6.94ZM40.42 0.67L40.42 0.67L42.77 0.67L42.77 11.09L40.39 11.09L37.45 5.26L37.45 11.09L35.10 11.09L35.10 0.67L37.49 0.67L40.42 6.48L40.42 0.67ZM49.92 3.02L49.92 3.02L45.89 3.02L45.89 4.70L48.86 4.70L48.86 7.06L45.89 7.06L45.89 8.74L49.92 8.74L49.92 11.09L43.54 11.09L43.54 0.67L49.92 0.67L49.92 3.02Z"></path></g><!----><g data-v-423bf9ae="" id="d7aefd01-8d6c-499b-a6bb-0b6befbaa0d1" transform="matrix(2.8125,0,0,2.8125,-12.426001459360123,0)" stroke="none" fill="white"><path d="M27.377 11.377L16 0 4.623 11.377 16 22.753l11.377-11.376zM16 6.026l5.35 5.35L16 16.727l-5.35-5.35L16 6.026zM27.426 14.969l-5.664 5.664V32h5.664zM10.238 20.633l-5.664-5.664V32h5.664z"></path></g><!----></svg>